<svg width="435" height="61" viewBox="0 0 435 61" fill="none" xmlns="http://www.w3.org/2000/svg">
<path d="M101.626 1.38318C112.239 1.38318 119.087 7.30833 119.703 16.9207H112.085C111.7 11.3803 107.775 8.14837 101.549 8.14837C94.5465 8.14837 90.0064 11.6881 90.0064 17.1259C90.0064 21.6146 92.5714 24.2822 97.7784 25.5134L106.929 27.668C116.009 29.7457 120.626 34.6705 120.626 42.5194C120.626 52.5229 112.854 58.9098 101.01 58.9098C89.6986 58.9098 82.1575 52.9846 81.6958 43.4428H89.3908C89.5447 48.7524 94.0078 52.1382 101.01 52.1382C108.391 52.1382 113.085 48.6754 113.085 43.1607C113.085 38.7745 110.7 36.0043 105.39 34.7731L96.233 32.6955C87.1528 30.6178 82.4589 25.3852 82.4589 17.3824C82.4653 7.84698 90.1603 1.38318 101.626 1.38318Z" fill="white"/>
<path d="M128.866 57.9479V1.38321H136.1V26.1547C138.485 22.0764 143.019 19.3062 148.867 19.3062C158.486 19.3062 163.103 25.3852 163.103 35.004V58.0121H155.869V36.6199C155.869 29.0019 152.253 25.9239 146.892 25.9239C139.889 25.9239 136.125 31.0026 136.125 37.4664V57.9479H128.866Z" fill="white"/>
<path d="M208.965 20.3835V58.0121H202.347L201.706 51.1635C199.141 56.0113 194.319 59.0124 188.086 59.0124C177.011 59.0124 170.625 50.394 170.625 38.9284C170.625 27.4629 177.55 19.3062 188.317 19.3062C194.088 19.3062 199.551 21.9225 202.014 27.309L202.552 20.3835H208.965ZM189.727 25.9239C182.347 25.9239 177.96 31.4643 177.96 39.2362C177.96 47.0082 182.263 52.4716 189.65 52.4716C197.038 52.4716 201.578 47.0082 201.578 39.2362C201.578 31.4643 197.115 25.9239 189.727 25.9239Z" fill="white"/>
<path d="M240.976 26.6934H237.77C230.921 26.6934 226.689 30.8487 226.689 38.082V58.0121H219.417V20.4604H226.189L226.651 26.1547C228.19 22.2303 231.96 19.614 237.116 19.614C238.411 19.6246 239.702 19.7794 240.963 20.0757L240.976 26.6934Z" fill="white"/>
<path d="M243.907 39.3132C243.907 27.7707 250.595 19.3062 261.753 19.3062C267.524 19.3062 272.372 21.8712 274.911 26.4625V1.38321H282.067V58.0121H275.604L274.962 51.1635C272.5 56.2935 267.421 58.9355 261.419 58.9355C250.518 58.9355 243.907 50.7788 243.907 39.3132ZM274.834 39.0823C274.834 31.3873 270.294 25.8469 262.907 25.8469C255.52 25.8469 251.21 31.3873 251.21 39.0823C251.21 46.7774 255.52 52.3947 262.907 52.3947C270.294 52.3947 274.834 46.9313 274.834 39.0823Z" fill="white"/>
<path d="M290.07 39.2362C290.07 27.4629 297.534 19.3062 308.461 19.3062C319.157 19.3062 326.16 26.6934 326.16 37.8511V40.5444L297.073 40.6342C297.611 48.56 301.767 52.9462 308.923 52.9462C314.54 52.9462 318.234 50.6377 319.465 46.3285H326.237C324.39 54.4082 318.08 58.9483 308.769 58.9483C297.688 58.9355 290.07 50.9326 290.07 39.2362ZM297.227 35.7735H318.927C318.927 29.5405 314.848 25.3852 308.461 25.3852C302.075 25.3852 298.15 29.1558 297.227 35.7735Z" fill="white"/>
<path d="M367.405 20.3834V58.012H360.941L360.172 52.3177C358.017 56.2422 353.015 58.9354 347.475 58.9354C338.703 58.9354 333.778 53.0103 333.778 43.7763V20.3834H341.011V41.3908C341.011 49.4706 344.474 52.5486 349.989 52.5486C356.606 52.5486 360.249 48.3163 360.249 40.2366V20.3578L367.405 20.3834Z" fill="white"/>
<path d="M377.87 58.0121V20.3835H384.334L385.027 25.3083C386.95 21.7686 390.952 19.3062 396.261 19.3062C402.11 19.3062 406.265 22.2303 408.189 26.9242C409.959 22.2303 414.499 19.3062 420.372 19.3062C428.991 19.3062 434.223 24.6927 434.223 33.4137V58.0377H427.17V35.1579C427.17 29.2327 423.861 25.8469 418.782 25.8469C413.319 25.8469 409.702 29.6944 409.702 35.6965V58.0121H402.494V35.0809C402.494 29.1558 399.288 25.9239 394.158 25.9239C388.695 25.9239 385.078 29.6944 385.078 35.6965V58.0121H377.87Z" fill="white"/>
<path d="M15.7607 46.4503L7.88245 60.0996H61.5157L53.6375 46.4503H15.7607Z" fill="white"/>
<path d="M34.6991 13.6493L26.8209 0L0 46.4503H15.7607L34.6991 13.6493Z" fill="white"/>
<path d="M53.6374 46.4503H69.3981L42.5772 3.05176e-05L34.699 13.6493L53.6374 46.4503Z" fill="white"/>
<path d="M34.6991 44.1043C39.4105 44.1043 43.2299 40.2849 43.2299 35.5735C43.2299 30.8621 39.4105 27.0427 34.6991 27.0427C29.9876 27.0427 26.1683 30.8621 26.1683 35.5735C26.1683 40.2849 29.9876 44.1043 34.6991 44.1043Z" fill="white"/>
</svg>
